{
  "accessors": [
    {
      "bufferView": 2,
      "componentType": 5126,
      "count": 2302,
      "max": [
        214.0307159423828,
        -10.208084106445313,
        119.50493621826172
      ],
      "min": [
        38.4224853515625,
        -41.542625427246094,
        68.4644546508789
      ],
      "type": "VEC3"
    },
    {
      "bufferView": 2,
      "byteOffset": 27624,
      "componentType": 5126,
      "count": 2302,
      "max": [
        1.0,
        1.0,
        0.9999949336051941
      ],
      "min": [
        -0.9999142289161682,
        -1.0,
        -0.9999920129776001
      ],
      "type": "VEC3"
    },
    {
      "bufferView": 1,
      "componentType": 5126,
      "count": 2302,
      "max": [
        0.9468169808387756,
        0.9985340237617493
      ],
      "min": [
        -6.000000212225132e-06,
        -9.999999974752427e-07
      ],
      "type": "VEC2"
    },
    {
      "bufferView": 0,
      "componentType": 5125,
      "count": 4833,
      "type": "SCALAR"
    },
    {
      "bufferView": 2,
      "byteOffset": 55248,
      "componentType": 5126,
      "count": 16182,
      "max": [
        285.777099609375,
        1.4999999621068127e-05,
        170.391357421875
      ],
      "min": [
        35.77709197998047,
        -59.38914489746094,
        17.742576599121094
      ],
      "type": "VEC3"
    },
    {
      "bufferView": 2,
      "byteOffset": 249432,
      "componentType": 5126,
      "count": 16182,
      "max": [
        1.0,
        1.0,
        1.0
      ],
      "min": [
        -1.0,
        -1.0,
        -1.0
      ],
      "type": "VEC3"
    },
    {
      "bufferView": 1,
      "byteOffset": 18416,
      "componentType": 5126,
      "count": 16182,
      "max": [
        0.9998030066490173,
        1.0
      ],
      "min": [
        -1.2000000424450263e-05,
        -2.700000004551839e-05
      ],
      "type": "VEC2"
    },
    {
      "bufferView": 0,
      "byteOffset": 19332,
      "componentType": 5125,
      "count": 39726,
      "type": "SCALAR"
    },
    {
      "bufferView": 2,
      "byteOffset": 443616,
      "componentType": 5126,
      "count": 2214,
      "max": [
        196.80308532714844,
        -4.6979451179504395,
        104.04791259765625
      ],
      "min": [
        87.4886245727539,
        -15.86181640625,
        84.61624145507813
      ],
      "type": "VEC3"
    },
    {
      "bufferView": 2,
      "byteOffset": 470184,
      "componentType": 5126,
      "count": 2214,
      "max": [
        0.9996492862701416,
        0.9979996085166931,
        1.0
      ],
      "min": [
        -0.9998604655265808,
        -0.99962317943573,
        -0.9999999403953552
      ],
      "type": "VEC3"
    },
    {
      "bufferView": 1,
      "byteOffset": 147872,
      "componentType": 5126,
      "count": 2214,
      "max": [
        0.9960899949073792,
        0.9960899949073792
      ],
      "min": [
        -1.9999999949504854e-06,
        -9.999999974752427e-07
      ],
      "type": "VEC2"
    },
    {
      "bufferView": 0,
      "byteOffset": 178236,
      "componentType": 5125,
      "count": 5103,
      "type": "SCALAR"
    },
    {
      "bufferView": 2,
      "byteOffset": 496752,
      "componentType": 5126,
      "count": 2202,
      "max": [
        171.44091796875,
        -6.431941986083984,
        141.32350158691406
      ],
      "min": [
        87.52780151367188,
        -18.460174560546875,
        47.147361755371094
      ],
      "type": "VEC3"
    },
    {
      "bufferView": 2,
      "byteOffset": 523176,
      "componentType": 5126,
      "count": 2202,
      "max": [
        1.0,
        0.9984723925590515,
        0.9999993443489075
      ],
      "min": [
        -1.0,
        -1.0,
        -0.9999542236328125
      ],
      "type": "VEC3"
    },
    {
      "bufferView": 1,
      "byteOffset": 165584,
      "componentType": 5126,
      "count": 2202,
      "max": [
        0.9960899949073792,
        0.9960899949073792
      ],
      "min": [
        0.003909999970346689,
        0.04061900079250336
      ],
      "type": "VEC2"
    },
    {
      "bufferView": 0,
      "byteOffset": 198648,
      "componentType": 5125,
      "count": 5154,
      "type": "SCALAR"
    },
    {
      "bufferView": 2,
      "byteOffset": 549600,
      "componentType": 5126,
      "count": 740,
      "max": [
        164.67471313476563,
        -16.830650329589844,
        144.1699981689453
      ],
      "min": [
        126.85328674316406,
        -23.69086456298828,
        44.645633697509766
      ],
      "type": "VEC3"
    },
    {
      "bufferView": 2,
      "byteOffset": 558480,
      "componentType": 5126,
      "count": 740,
      "max": [
        0.9995110034942627,
        1.0,
        0.9999801516532898
      ],
      "min": [
        -0.9998143911361694,
        -0.9995032548904419,
        -0.9999939203262329
      ],
      "type": "VEC3"
    },
    {
      "bufferView": 1,
      "byteOffset": 183200,
      "componentType": 5126,
      "count": 740,
      "max": [
        0.9960939884185791,
        0.9918270111083984
      ],
      "min": [
        -1.8000000636675395e-05,
        -4.999999873689376e-06
      ],
      "type": "VEC2"
    },
    {
      "bufferView": 0,
      "byteOffset": 219264,
      "componentType": 5125,
      "count": 1662,
      "type": "SCALAR"
    }
  ],
  "asset": {
    "extras": {
      "author": "dwsd (https://sketchfab.com/dwsd)",
      "license": "CC-BY-4.0 (http://creativecommons.org/licenses/by/4.0/)",
      "source": "https://sketchfab.com/3d-models/f-14-tomcat-top-gun-gear-up-downloadable-9d2d0c87539046aa8c2198fcc47cdcf8",
      "title": "F-14 Tomcat Top Gun (Gear UP) Downloadable"
    },
    "generator": "Sketchfab-12.68.0",
    "version": "2.0"
  },
  "bufferViews": [
    {
      "buffer": 0,
      "byteLength": 225912,
      "name": "floatBufferViews",
      "target": 34963
    },
    {
      "buffer": 0,
      "byteLength": 189120,
      "byteOffset": 225912,
      "byteStride": 8,
      "name": "floatBufferViews",
      "target": 34962
    },
    {
      "buffer": 0,
      "byteLength": 567360,
      "byteOffset": 415032,
      "byteStride": 12,
      "name": "floatBufferViews",
      "target": 34962
    }
  ],
  "buffers": [
    {
      "byteLength": 982392,
      "uri": "scene.bin"
    }
  ],
  "images": [
    {
      "uri": "textures/White_baseColor.png"
    },
    {
      "uri": "textures/White_0_baseColor.png"
    },
    {
      "uri": "textures/White_1_baseColor.png"
    }
  ],
  "materials": [
    {
      "doubleSided": true,
      "name": "White",
      "pbrMetallicRoughness": {
        "baseColorTexture": {
          "index": 0
        },
        "metallicFactor": 0.0
      }
    },
    {
      "doubleSided": true,
      "name": "White_0",
      "pbrMetallicRoughness": {
        "baseColorTexture": {
          "index": 1
        },
        "metallicFactor": 0.0
      }
    },
    {
      "doubleSided": true,
      "name": "White_1",
      "pbrMetallicRoughness": {
        "baseColorTexture": {
          "index": 2
        },
        "metallicFactor": 0.0
      }
    }
  ],
  "meshes": [
    {
      "name": "Object_0",
      "primitives": [
        {
          "attributes": {
            "NORMAL": 1,
            "POSITION": 0,
            "TEXCOORD_0": 2
          },
          "indices": 3,
          "material": 0,
          "mode": 4
        }
      ]
    },
    {
      "name": "Object_1",
      "primitives": [
        {
          "attributes": {
            "NORMAL": 5,
            "POSITION": 4,
            "TEXCOORD_0": 6
          },
          "indices": 7,
          "material": 0,
          "mode": 4
        }
      ]
    },
    {
      "name": "Object_2",
      "primitives": [
        {
          "attributes": {
            "NORMAL": 9,
            "POSITION": 8,
            "TEXCOORD_0": 10
          },
          "indices": 11,
          "material": 1,
          "mode": 4
        }
      ]
    },
    {
      "name": "Object_3",
      "primitives": [
        {
          "attributes": {
            "NORMAL": 13,
            "POSITION": 12,
            "TEXCOORD_0": 14
          },
          "indices": 15,
          "material": 1,
          "mode": 4
        }
      ]
    },
    {
      "name": "Object_4",
      "primitives": [
        {
          "attributes": {
            "NORMAL": 17,
            "POSITION": 16,
            "TEXCOORD_0": 18
          },
          "indices": 19,
          "material": 2,
          "mode": 4
        }
      ]
    }
  ],
  "nodes": [
    {
      "children": [
        1
      ],
      "matrix": [
        1.0,
        0.0,
        0.0,
        0.0,
        0.0,
        -1.0,
        -2.220446049250313e-16,
        0.0,
        0.0,
        2.220446049250313e-16,
        -1.0,
        0.0,
        0.0,
        64.37245941162107,
        123.76152801513673,
        1.0
      ],
      "name": "Sketchfab_model"
    },
    {
      "children": [
        2,
        3,
        4,
        5,
        6
      ],
      "name": "F-14.obj.cleaner.materialmerger.gles"
    },
    {
      "mesh": 0,
      "name": "Object_2"
    },
    {
      "mesh": 1,
      "name": "Object_3"
    },
    {
      "mesh": 2,
      "name": "Object_4"
    },
    {
      "mesh": 3,
      "name": "Object_5"
    },
    {
      "mesh": 4,
      "name": "Object_6"
    }
  ],
  "samplers": [
    {
      "magFilter": 9729,
      "minFilter": 9987,
      "wrapS": 10497,
      "wrapT": 10497
    }
  ],
  "scene": 0,
  "scenes": [
    {
      "name": "Sketchfab_Scene",
      "nodes": [
        0
      ]
    }
  ],
  "textures": [
    {
      "sampler": 0,
      "source": 0
    },
    {
      "sampler": 0,
      "source": 1
    },
    {
      "sampler": 0,
      "source": 2
    }
  ]
}
