{
  "accessors": [
    {
      "bufferView": 2,
      "componentType": 5126,
      "count": 65532,
      "max": [
        11.792625427246094,
        0.4007277190685272,
        30.00638771057129
      ],
      "min": [
        -30.051544189453125,
        -2.9918904304504395,
        -22.34061622619629
      ],
      "type": "VEC3"
    },
    {
      "bufferView": 2,
      "byteOffset": 786384,
      "componentType": 5126,
      "count": 65532,
      "max": [
        0.9997462630271912,
        0.9336850643157959,
        0.9970557689666748
      ],
      "min": [
        -0.997113049030304,
        -0.9999996423721313,
        -0.996150553226471
      ],
      "type": "VEC3"
    },
    {
      "bufferView": 1,
      "componentType": 5126,
      "count": 65532,
      "max": [
        0.9998059868812561,
        0.5645750164985657
      ],
      "min": [
        0.0015869999770075083,
        0.0003659999929368496
      ],
      "type": "VEC2"
    },
    {
      "bufferView": 0,
      "componentType": 5125,
      "count": 292014,
      "type": "SCALAR"
    },
    {
      "bufferView": 2,
      "byteOffset": 1572768,
      "componentType": 5126,
      "count": 65532,
      "max": [
        10.67375659942627,
        0.335683137178421,
        26.705305099487305
      ],
      "min": [
        -34.11946487426758,
        -2.1865394115448,
        -23.84540367126465
      ],
      "type": "VEC3"
    },
    {
      "bufferView": 2,
      "byteOffset": 2359152,
      "componentType": 5126,
      "count": 65532,
      "max": [
        0.9997838735580444,
        0.9912877082824707,
        0.9970229864120483
      ],
      "min": [
        -0.997450053691864,
        -0.9999998807907104,
        -0.9983879327774048
      ],
      "type": "VEC3"
    },
    {
      "bufferView": 1,
      "byteOffset": 524256,
      "componentType": 5126,
      "count": 65532,
      "max": [
        0.9997979998588562,
        0.5275599956512451
      ],
      "min": [
        0.00012199999764561653,
        0.0003760000108741224
      ],
      "type": "VEC2"
    },
    {
      "bufferView": 0,
      "byteOffset": 1168056,
      "componentType": 5125,
      "count": 256299,
      "type": "SCALAR"
    },
    {
      "bufferView": 2,
      "byteOffset": 3145536,
      "componentType": 5126,
      "count": 56341,
      "max": [
        10.755813598632813,
        0.335683137178421,
        21.20878028869629
      ],
      "min": [
        -37.576358795166016,
        -2.112370252609253,
        -23.71610450744629
      ],
      "type": "VEC3"
    },
    {
      "bufferView": 2,
      "byteOffset": 3821628,
      "componentType": 5126,
      "count": 56341,
      "max": [
        0.9999382495880127,
        0.9388173818588257,
        0.9950851798057556
      ],
      "min": [
        -0.9780535697937012,
        -1.0,
        -0.9989240169525146
      ],
      "type": "VEC3"
    },
    {
      "bufferView": 1,
      "byteOffset": 1048512,
      "componentType": 5126,
      "count": 56341,
      "max": [
        0.999800980091095,
        0.527226984500885
      ],
      "min": [
        0.00012199999764561653,
        0.0004939999780617654
      ],
      "type": "VEC2"
    },
    {
      "bufferView": 0,
      "byteOffset": 2193252,
      "componentType": 5125,
      "count": 201684,
      "type": "SCALAR"
    }
  ],
  "asset": {
    "extras": {
      "author": "Epic_Tree_Store (https://sketchfab.com/johngreenstone)",
      "license": "CC-BY-4.0 (http://creativecommons.org/licenses/by/4.0/)",
      "source": "https://sketchfab.com/3d-models/beach-smple-d2b5b41241ad4bcc852dba7f8cba84b5",
      "title": "Beach smple"
    },
    "generator": "Sketchfab-12.65.0",
    "version": "2.0"
  },
  "bufferViews": [
    {
      "buffer": 0,
      "byteLength": 2999988,
      "name": "floatBufferViews",
      "target": 34963
    },
    {
      "buffer": 0,
      "byteLength": 1499240,
      "byteOffset": 2999988,
      "byteStride": 8,
      "name": "floatBufferViews",
      "target": 34962
    },
    {
      "buffer": 0,
      "byteLength": 4497720,
      "byteOffset": 4499228,
      "byteStride": 12,
      "name": "floatBufferViews",
      "target": 34962
    }
  ],
  "buffers": [
    {
      "byteLength": 8996948,
      "uri": "scene.bin"
    }
  ],
  "extensionsUsed": [
    "KHR_materials_unlit"
  ],
  "images": [
    {
      "uri": "textures/mesh_Material_u1_v1_baseColor.jpeg"
    }
  ],
  "materials": [
    {
      "doubleSided": true,
      "extensions": {
        "KHR_materials_unlit": {}
      },
      "name": "mesh_Material_u1_v1",
      "pbrMetallicRoughness": {
        "baseColorTexture": {
          "index": 0
        },
        "metallicFactor": 0.0
      }
    }
  ],
  "meshes": [
    {
      "name": "Object_0",
      "primitives": [
        {
          "attributes": {
            "NORMAL": 1,
            "POSITION": 0,
            "TEXCOORD_0": 2
          },
          "indices": 3,
          "material": 0,
          "mode": 4
        }
      ]
    },
    {
      "name": "Object_1",
      "primitives": [
        {
          "attributes": {
            "NORMAL": 5,
            "POSITION": 4,
            "TEXCOORD_0": 6
          },
          "indices": 7,
          "material": 0,
          "mode": 4
        }
      ]
    },
    {
      "name": "Object_2",
      "primitives": [
        {
          "attributes": {
            "NORMAL": 9,
            "POSITION": 8,
            "TEXCOORD_0": 10
          },
          "indices": 11,
          "material": 0,
          "mode": 4
        }
      ]
    }
  ],
  "nodes": [
    {
      "children": [
        1
      ],
      "matrix": [
        0.9787206649780273,
        0.011185985989868686,
        -0.20489193499088287,
        0.0,
        0.01468072459101677,
        -0.9997714161872864,
        0.015544295310973899,
        0.0,
        -0.2046712189912796,
        -0.018221484497189303,
        -0.9786611795425415,
        0.0,
        0.3751906454563141,
        1.985616564750671,
        1.6890927553176884,
        1.0
      ],
      "name": "Sketchfab_model"
    },
    {
      "children": [
        2,
        3,
        4
      ],
      "name": "mesh.obj.cleaner.materialmerger.gles"
    },
    {
      "mesh": 0,
      "name": "Object_2"
    },
    {
      "mesh": 1,
      "name": "Object_3"
    },
    {
      "mesh": 2,
      "name": "Object_4"
    }
  ],
  "samplers": [
    {
      "magFilter": 9729,
      "minFilter": 9987,
      "wrapS": 10497,
      "wrapT": 10497
    }
  ],
  "scene": 0,
  "scenes": [
    {
      "name": "Sketchfab_Scene",
      "nodes": [
        0
      ]
    }
  ],
  "textures": [
    {
      "sampler": 0,
      "source": 0
    }
  ]
}
