{
  "accessors": [
    {
      "bufferView": 2,
      "componentType": 5126,
      "count": 65532,
      "max": [
        46.164695739746094,
        16.38585090637207,
        4.871247291564941
      ],
      "min": [
        1.282774567604065,
        -11.176648139953613,
        -22.134672164916992
      ],
      "type": "VEC3"
    },
    {
      "bufferView": 2,
      "byteOffset": 786384,
      "componentType": 5126,
      "count": 65532,
      "max": [
        0.9999957084655762,
        0.9998460412025452,
        0.9999987483024597
      ],
      "min": [
        -0.9999970197677612,
        -0.9999698996543884,
        -0.9999003410339355
      ],
      "type": "VEC3"
    },
    {
      "bufferView": 1,
      "componentType": 5126,
      "count": 65532,
      "max": [
        0.9998989105224609,
        0.9998769760131836
      ],
      "min": [
        0.0010108060669153929,
        0.0016172799514606595
      ],
      "type": "VEC2"
    },
    {
      "bufferView": 0,
      "componentType": 5125,
      "count": 336225,
      "type": "SCALAR"
    },
    {
      "bufferView": 2,
      "byteOffset": 1572768,
      "componentType": 5126,
      "count": 65532,
      "max": [
        44.30612564086914,
        34.00132369995117,
        30.138418197631836
      ],
      "min": [
        -3.5069212913513184,
        -2.0082614421844482,
        -62.85127258300781
      ],
      "type": "VEC3"
    },
    {
      "bufferView": 2,
      "byteOffset": 2359152,
      "componentType": 5126,
      "count": 65532,
      "max": [
        0.9999803304672241,
        0.9999196529388428,
        0.9999478459358215
      ],
      "min": [
        -0.9999513030052185,
        -0.9999829530715942,
        -0.999976634979248
      ],
      "type": "VEC3"
    },
    {
      "bufferView": 1,
      "byteOffset": 524256,
      "componentType": 5126,
      "count": 65532,
      "max": [
        0.9999194741249084,
        0.999885618686676
      ],
      "min": [
        0.0004982996033504605,
        0.0005535545060411096
      ],
      "type": "VEC2"
    },
    {
      "bufferView": 0,
      "byteOffset": 1344900,
      "componentType": 5125,
      "count": 261876,
      "type": "SCALAR"
    },
    {
      "bufferView": 2,
      "byteOffset": 3145536,
      "componentType": 5126,
      "count": 65532,
      "max": [
        27.352855682373047,
        33.649986267089844,
        37.98105239868164
      ],
      "min": [
        -53.307865142822266,
        -9.330889701843262,
        -61.26130676269531
      ],
      "type": "VEC3"
    },
    {
      "bufferView": 2,
      "byteOffset": 3931920,
      "componentType": 5126,
      "count": 65532,
      "max": [
        0.9998947978019714,
        0.9998804926872253,
        0.9999552369117737
      ],
      "min": [
        -0.9999643564224243,
        -0.9999823570251465,
        -0.9998809099197388
      ],
      "type": "VEC3"
    },
    {
      "bufferView": 1,
      "byteOffset": 1048512,
      "componentType": 5126,
      "count": 65532,
      "max": [
        0.9999642372131348,
        0.9999361634254456
      ],
      "min": [
        0.0004948221030645072,
        3.814852607320063e-05
      ],
      "type": "VEC2"
    },
    {
      "bufferView": 0,
      "byteOffset": 2392404,
      "componentType": 5125,
      "count": 248517,
      "type": "SCALAR"
    },
    {
      "bufferView": 2,
      "byteOffset": 4718304,
      "componentType": 5126,
      "count": 65532,
      "max": [
        46.31650161743164,
        12.167937278747559,
        56.99349594116211
      ],
      "min": [
        -23.663022994995117,
        -16.56076431274414,
        -0.6230076551437378
      ],
      "type": "VEC3"
    },
    {
      "bufferView": 2,
      "byteOffset": 5504688,
      "componentType": 5126,
      "count": 65532,
      "max": [
        0.9999517202377319,
        0.9998716115951538,
        0.9999046325683594
      ],
      "min": [
        -0.9999526143074036,
        -0.9999547004699707,
        -0.9997802376747131
      ],
      "type": "VEC3"
    },
    {
      "bufferView": 1,
      "byteOffset": 1572768,
      "componentType": 5126,
      "count": 65532,
      "max": [
        0.9999666213989258,
        0.9999706745147705
      ],
      "min": [
        0.00021579570602625608,
        0.0005944977747276425
      ],
      "type": "VEC2"
    },
    {
      "bufferView": 0,
      "byteOffset": 3386472,
      "componentType": 5125,
      "count": 283854,
      "type": "SCALAR"
    },
    {
      "bufferView": 2,
      "byteOffset": 6291072,
      "componentType": 5126,
      "count": 65532,
      "max": [
        44.48085021972656,
        28.14861297607422,
        32.498653411865234
      ],
      "min": [
        -47.708187103271484,
        -4.730302810668945,
        -32.98213577270508
      ],
      "type": "VEC3"
    },
    {
      "bufferView": 2,
      "byteOffset": 7077456,
      "componentType": 5126,
      "count": 65532,
      "max": [
        0.9997513294219971,
        0.9999794363975525,
        0.999963641166687
      ],
      "min": [
        -0.9999096393585205,
        -0.999987781047821,
        -0.9997854828834534
      ],
      "type": "VEC3"
    },
    {
      "bufferView": 1,
      "byteOffset": 2097024,
      "componentType": 5126,
      "count": 65532,
      "max": [
        0.9999852776527405,
        0.9999847412109375
      ],
      "min": [
        0.0004981448291800916,
        2.8089634724892676e-05
      ],
      "type": "VEC2"
    },
    {
      "bufferView": 0,
      "byteOffset": 4521888,
      "componentType": 5125,
      "count": 256887,
      "type": "SCALAR"
    },
    {
      "bufferView": 2,
      "byteOffset": 7863840,
      "componentType": 5126,
      "count": 65532,
      "max": [
        43.854331970214844,
        34.577491760253906,
        74.8318862915039
      ],
      "min": [
        -6.081066608428955,
        -15.548229217529297,
        -65.40164184570313
      ],
      "type": "VEC3"
    },
    {
      "bufferView": 2,
      "byteOffset": 8650224,
      "componentType": 5126,
      "count": 65532,
      "max": [
        0.9998239874839783,
        0.9998812675476074,
        0.9999886155128479
      ],
      "min": [
        -0.999987006187439,
        -0.9999489784240723,
        -0.9999428987503052
      ],
      "type": "VEC3"
    },
    {
      "bufferView": 1,
      "byteOffset": 2621280,
      "componentType": 5126,
      "count": 65532,
      "max": [
        0.9999445080757141,
        0.9999820590019226
      ],
      "min": [
        0.0005214900011196733,
        7.925962563604116e-06
      ],
      "type": "VEC2"
    },
    {
      "bufferView": 0,
      "byteOffset": 5549436,
      "componentType": 5125,
      "count": 304185,
      "type": "SCALAR"
    },
    {
      "bufferView": 2,
      "byteOffset": 9436608,
      "componentType": 5126,
      "count": 65533,
      "max": [
        48.30363082885742,
        28.992450714111328,
        50.07456588745117
      ],
      "min": [
        -53.150115966796875,
        -12.455939292907715,
        -35.517677307128906
      ],
      "type": "VEC3"
    },
    {
      "bufferView": 2,
      "byteOffset": 10223004,
      "componentType": 5126,
      "count": 65533,
      "max": [
        0.9999319911003113,
        0.999927818775177,
        0.9998685121536255
      ],
      "min": [
        -0.9999815225601196,
        -0.9999872446060181,
        -0.9999346137046814
      ],
      "type": "VEC3"
    },
    {
      "bufferView": 1,
      "byteOffset": 3145536,
      "componentType": 5126,
      "count": 65533,
      "max": [
        0.9999580383300781,
        0.9999666810035706
      ],
      "min": [
        0.0005232876865193248,
        0.0005186018534004688
      ],
      "type": "VEC2"
    },
    {
      "bufferView": 0,
      "byteOffset": 6766176,
      "componentType": 5125,
      "count": 243375,
      "type": "SCALAR"
    },
    {
      "bufferView": 2,
      "byteOffset": 11009400,
      "componentType": 5126,
      "count": 65532,
      "max": [
        42.60300827026367,
        31.96131134033203,
        73.17284393310547
      ],
      "min": [
        -42.82695007324219,
        -16.956005096435547,
        -48.429935455322266
      ],
      "type": "VEC3"
    },
    {
      "bufferView": 2,
      "byteOffset": 11795784,
      "componentType": 5126,
      "count": 65532,
      "max": [
        0.999983549118042,
        0.9999934434890747,
        0.9998719692230225
      ],
      "min": [
        -0.9999703764915466,
        -0.9999899864196777,
        -0.9999672770500183
      ],
      "type": "VEC3"
    },
    {
      "bufferView": 1,
      "byteOffset": 3669800,
      "componentType": 5126,
      "count": 65532,
      "max": [
        0.999987006187439,
        0.9999456405639648
      ],
      "min": [
        0.0004969903966411948,
        0.00014721514889970422
      ],
      "type": "VEC2"
    },
    {
      "bufferView": 0,
      "byteOffset": 7739676,
      "componentType": 5125,
      "count": 200385,
      "type": "SCALAR"
    },
    {
      "bufferView": 2,
      "byteOffset": 12582168,
      "componentType": 5126,
      "count": 65532,
      "max": [
        7.200043678283691,
        33.092681884765625,
        -9.84049129486084
      ],
      "min": [
        -50.265403747558594,
        11.461542129516602,
        -59.234466552734375
      ],
      "type": "VEC3"
    },
    {
      "bufferView": 2,
      "byteOffset": 13368552,
      "componentType": 5126,
      "count": 65532,
      "max": [
        0.9999730587005615,
        0.9994454979896545,
        0.9999979734420776
      ],
      "min": [
        -0.9999923706054688,
        -0.9999971389770508,
        -0.999989926815033
      ],
      "type": "VEC3"
    },
    {
      "bufferView": 1,
      "byteOffset": 4194056,
      "componentType": 5126,
      "count": 65532,
      "max": [
        0.9999462366104126,
        0.9999887943267822
      ],
      "min": [
        0.0005095333908684552,
        0.0001451714342692867
      ],
      "type": "VEC2"
    },
    {
      "bufferView": 0,
      "byteOffset": 8541216,
      "componentType": 5125,
      "count": 263085,
      "type": "SCALAR"
    },
    {
      "bufferView": 2,
      "byteOffset": 14154936,
      "componentType": 5126,
      "count": 54785,
      "max": [
        36.451290130615234,
        32.967979431152344,
        5.1704607009887695
      ],
      "min": [
        -12.421114921569824,
        4.777037143707275,
        -60.339569091796875
      ],
      "type": "VEC3"
    },
    {
      "bufferView": 2,
      "byteOffset": 14812356,
      "componentType": 5126,
      "count": 54785,
      "max": [
        0.999988317489624,
        0.9999132752418518,
        0.9998563528060913
      ],
      "min": [
        -0.9999101758003235,
        -0.9999761581420898,
        -0.9999145269393921
      ],
      "type": "VEC3"
    },
    {
      "bufferView": 1,
      "byteOffset": 4718312,
      "componentType": 5126,
      "count": 54785,
      "max": [
        0.9999676942825317,
        0.9999846816062927
      ],
      "min": [
        0.0004956499906256795,
        1.2432210496626794e-05
      ],
      "type": "VEC2"
    },
    {
      "bufferView": 0,
      "byteOffset": 9593556,
      "componentType": 5125,
      "count": 140829,
      "type": "SCALAR"
    }
  ],
  "asset": {
    "extras": {
      "author": "johnnokomis (https://sketchfab.com/johnnokomis)",
      "license": "CC-BY-4.0 (http://creativecommons.org/licenses/by/4.0/)",
      "source": "https://sketchfab.com/3d-models/saturn-ib-rocket-430f8925710f4fa9ae335f61d926dd7c",
      "title": "Saturn IB Rocket"
    },
    "generator": "Sketchfab-15.30.0",
    "version": "2.0"
  },
  "bufferViews": [
    {
      "buffer": 0,
      "byteLength": 10156872,
      "name": "floatBufferViews",
      "target": 34963
    },
    {
      "buffer": 0,
      "byteLength": 5156592,
      "byteOffset": 10156872,
      "byteStride": 8,
      "name": "floatBufferViews",
      "target": 34962
    },
    {
      "buffer": 0,
      "byteLength": 15469776,
      "byteOffset": 15313464,
      "byteStride": 12,
      "name": "floatBufferViews",
      "target": 34962
    }
  ],
  "buffers": [
    {
      "byteLength": 30783240,
      "uri": "scene.bin"
    }
  ],
  "extensionsUsed": [
    "KHR_materials_unlit"
  ],
  "images": [
    {
      "uri": "textures/material0_baseColor.jpeg"
    }
  ],
  "materials": [
    {
      "doubleSided": true,
      "extensions": {
        "KHR_materials_unlit": {}
      },
      "name": "material0",
      "pbrMetallicRoughness": {
        "baseColorTexture": {
          "index": 0
        },
        "metallicFactor": 0.0
      }
    }
  ],
  "meshes": [
    {
      "name": "Model_material0_0",
      "primitives": [
        {
          "attributes": {
            "NORMAL": 1,
            "POSITION": 0,
            "TEXCOORD_0": 2
          },
          "indices": 3,
          "material": 0,
          "mode": 4
        }
      ]
    },
    {
      "name": "Model_material0_0",
      "primitives": [
        {
          "attributes": {
            "NORMAL": 5,
            "POSITION": 4,
            "TEXCOORD_0": 6
          },
          "indices": 7,
          "material": 0,
          "mode": 4
        }
      ]
    },
    {
      "name": "Model_material0_0",
      "primitives": [
        {
          "attributes": {
            "NORMAL": 9,
            "POSITION": 8,
            "TEXCOORD_0": 10
          },
          "indices": 11,
          "material": 0,
          "mode": 4
        }
      ]
    },
    {
      "name": "Model_material0_0",
      "primitives": [
        {
          "attributes": {
            "NORMAL": 13,
            "POSITION": 12,
            "TEXCOORD_0": 14
          },
          "indices": 15,
          "material": 0,
          "mode": 4
        }
      ]
    },
    {
      "name": "Model_material0_0",
      "primitives": [
        {
          "attributes": {
            "NORMAL": 17,
            "POSITION": 16,
            "TEXCOORD_0": 18
          },
          "indices": 19,
          "material": 0,
          "mode": 4
        }
      ]
    },
    {
      "name": "Model_material0_0",
      "primitives": [
        {
          "attributes": {
            "NORMAL": 21,
            "POSITION": 20,
            "TEXCOORD_0": 22
          },
          "indices": 23,
          "material": 0,
          "mode": 4
        }
      ]
    },
    {
      "name": "Model_material0_0",
      "primitives": [
        {
          "attributes": {
            "NORMAL": 25,
            "POSITION": 24,
            "TEXCOORD_0": 26
          },
          "indices": 27,
          "material": 0,
          "mode": 4
        }
      ]
    },
    {
      "name": "Model_material0_0",
      "primitives": [
        {
          "attributes": {
            "NORMAL": 29,
            "POSITION": 28,
            "TEXCOORD_0": 30
          },
          "indices": 31,
          "material": 0,
          "mode": 4
        }
      ]
    },
    {
      "name": "Model_material0_0",
      "primitives": [
        {
          "attributes": {
            "NORMAL": 33,
            "POSITION": 32,
            "TEXCOORD_0": 34
          },
          "indices": 35,
          "material": 0,
          "mode": 4
        }
      ]
    },
    {
      "name": "Model_material0_0",
      "primitives": [
        {
          "attributes": {
            "NORMAL": 37,
            "POSITION": 36,
            "TEXCOORD_0": 38
          },
          "indices": 39,
          "material": 0,
          "mode": 4
        }
      ]
    }
  ],
  "nodes": [
    {
      "children": [
        1
      ],
      "matrix": [
        0.8753291368484497,
        -0.064197577536106,
        -0.47924691438674927,
        0.0,
        -0.11535323411226273,
        0.9348035454750062,
        -0.33591070771217324,
        0.0,
        0.46956634521484375,
        0.34931510686874373,
        0.8108553290367128,
        0.0,
        0.0,
        0.0,
        0.0,
        1.0
      ],
      "name": "Sketchfab_model"
    },
    {
      "children": [
        2
      ],
      "matrix": [
        1.0,
        0.0,
        0.0,
        0.0,
        0.0,
        -1.0,
        0.0,
        0.0,
        0.0,
        0.0,
        -1.0,
        0.0,
        0.0,
        0.0,
        0.0,
        1.0
      ],
      "name": "model.fbx"
    },
    {
      "children": [
        3
      ],
      "name": "RootNode"
    },
    {
      "children": [
        4,
        5,
        6,
        7,
        8,
        9,
        10,
        11,
        12,
        13
      ],
      "name": "Model"
    },
    {
      "mesh": 0,
      "name": "Model_material0_0"
    },
    {
      "mesh": 1,
      "name": "Model_material0_0"
    },
    {
      "mesh": 2,
      "name": "Model_material0_0"
    },
    {
      "mesh": 3,
      "name": "Model_material0_0"
    },
    {
      "mesh": 4,
      "name": "Model_material0_0"
    },
    {
      "mesh": 5,
      "name": "Model_material0_0"
    },
    {
      "mesh": 6,
      "name": "Model_material0_0"
    },
    {
      "mesh": 7,
      "name": "Model_material0_0"
    },
    {
      "mesh": 8,
      "name": "Model_material0_0"
    },
    {
      "mesh": 9,
      "name": "Model_material0_0"
    }
  ],
  "samplers": [
    {
      "magFilter": 9729,
      "minFilter": 9987,
      "wrapS": 10497,
      "wrapT": 10497
    }
  ],
  "scene": 0,
  "scenes": [
    {
      "name": "Sketchfab_Scene",
      "nodes": [
        0
      ]
    }
  ],
  "textures": [
    {
      "sampler": 0,
      "source": 0
    }
  ]
}
