{
  "accessors": [
    {
      "bufferView": 2,
      "componentType": 5126,
      "count": 1623,
      "max": [
        236.46298217773438,
        284.297607421875,
        98.62342834472656
      ],
      "min": [
        -236.46298217773438,
        -395.87933349609375,
        -68.49750518798828
      ],
      "type": "VEC3"
    },
    {
      "bufferView": 2,
      "byteOffset": 19476,
      "componentType": 5126,
      "count": 1623,
      "max": [
        1.0,
        1.0,
        0.9998980164527893
      ],
      "min": [
        -1.0,
        -1.0,
        -1.0
      ],
      "type": "VEC3"
    },
    {
      "bufferView": 1,
      "componentType": 5126,
      "count": 1623,
      "max": [
        0.9942114353179932,
        0.9944549202919006
      ],
      "min": [
        0.008327871561050415,
        0.006810026243329048
      ],
      "type": "VEC2"
    },
    {
      "bufferView": 0,
      "componentType": 5125,
      "count": 4077,
      "type": "SCALAR"
    }
  ],
  "asset": {
    "extras": {
      "author": "Carlos.Maciel (https://sketchfab.com/Carlos.Maciel)",
      "license": "CC-BY-4.0 (http://creativecommons.org/licenses/by/4.0/)",
      "source": "https://sketchfab.com/3d-models/mcdonnell-douglas-fa-18-hornet-ec4a032f83ad48868efa2d4ed35a7e17",
      "title": "McDonnell Douglas F/A-18 Hornet"
    },
    "generator": "Sketchfab-12.67.0",
    "version": "2.0"
  },
  "bufferViews": [
    {
      "buffer": 0,
      "byteLength": 16308,
      "name": "floatBufferViews",
      "target": 34963
    },
    {
      "buffer": 0,
      "byteLength": 12984,
      "byteOffset": 16308,
      "byteStride": 8,
      "name": "floatBufferViews",
      "target": 34962
    },
    {
      "buffer": 0,
      "byteLength": 38952,
      "byteOffset": 29292,
      "byteStride": 12,
      "name": "floatBufferViews",
      "target": 34962
    }
  ],
  "buffers": [
    {
      "byteLength": 68244,
      "uri": "scene.bin"
    }
  ],
  "images": [
    {
      "uri": "textures/Material_1337_baseColor.png"
    },
    {
      "uri": "textures/Material_1337_metallicRoughness.png"
    }
  ],
  "materials": [
    {
      "doubleSided": true,
      "name": "Material_1337",
      "pbrMetallicRoughness": {
        "baseColorTexture": {
          "index": 0
        },
        "metallicRoughnessTexture": {
          "index": 1
        },
        "roughnessFactor": 0.6
      }
    }
  ],
  "meshes": [
    {
      "name": "Object14_Material #1337_0",
      "primitives": [
        {
          "attributes": {
            "NORMAL": 1,
            "POSITION": 0,
            "TEXCOORD_0": 2
          },
          "indices": 3,
          "material": 0,
          "mode": 4
        }
      ]
    }
  ],
  "nodes": [
    {
      "children": [
        1
      ],
      "matrix": [
        1.0,
        0.0,
        0.0,
        0.0,
        0.0,
        2.220446049250313e-16,
        -1.0,
        0.0,
        0.0,
        1.0,
        2.220446049250313e-16,
        0.0,
        0.0,
        0.0,
        0.0,
        1.0
      ],
      "name": "Sketchfab_model"
    },
    {
      "children": [
        2
      ],
      "matrix": [
        1.0,
        0.0,
        0.0,
        0.0,
        0.0,
        0.0,
        1.0,
        0.0,
        0.0,
        -1.0,
        0.0,
        0.0,
        0.0,
        0.0,
        0.0,
        1.0
      ],
      "name": "9da0e300b62e4c76987a340ef2338173.fbx"
    },
    {
      "children": [
        3
      ],
      "name": "RootNode"
    },
    {
      "children": [
        4
      ],
      "matrix": [
        0.02539999969302453,
        -1.3446647875156671e-24,
        2.4223327343964128e-08,
        0.0,
        2.4223327343964128e-08,
        2.8199664484680564e-18,
        -0.02539999969302453,
        0.0,
        -1.3446647875156671e-24,
        0.02539999969303608,
        2.8199664484680564e-18,
        0.0,
        -0.786834716796875,
        2.4310154914855957,
        -2.5171642303466797,
        1.0
      ],
      "name": "3dxy"
    },
    {
      "children": [
        5
      ],
      "matrix": [
        17.86824607849121,
        0.0,
        0.0,
        0.0,
        0.0,
        17.86824607849121,
        -1.972152271715754e-31,
        0.0,
        0.0,
        1.972152271715754e-31,
        17.86824607849121,
        0.0,
        0.0,
        -3.814697265625e-05,
        -91.52204132080078,
        1.0
      ],
      "name": "Object14"
    },
    {
      "children": [
        6
      ],
      "matrix": [
        1.0,
        0.0,
        -0.0,
        0.0,
        0.0,
        1.0,
        0.0,
        0.0,
        0.0,
        0.0,
        1.0,
        0.0,
        0.0,
        55.7908935546875,
        88.60787963867188,
        1.0
      ],
      "name": "Object_5"
    },
    {
      "mesh": 0,
      "name": "Object14_Material #1337_0"
    }
  ],
  "samplers": [
    {
      "magFilter": 9729,
      "minFilter": 9987,
      "wrapS": 10497,
      "wrapT": 10497
    }
  ],
  "scene": 0,
  "scenes": [
    {
      "name": "Sketchfab_Scene",
      "nodes": [
        0
      ]
    }
  ],
  "textures": [
    {
      "sampler": 0,
      "source": 0
    },
    {
      "sampler": 0,
      "source": 1
    }
  ]
}
