{
  "accessors": [
    {
      "bufferView": 2,
      "componentType": 5126,
      "count": 65532,
      "max": [
        9.074433326721191,
        -6.225024223327637,
        6.1345648765563965
      ],
      "min": [
        -7.758575916290283,
        -10.46916675567627,
        -9.859444618225098
      ],
      "type": "VEC3"
    },
    {
      "bufferView": 2,
      "byteOffset": 786384,
      "componentType": 5126,
      "count": 65532,
      "max": [
        0.9022067785263062,
        0.9999980926513672,
        0.684928297996521
      ],
      "min": [
        -0.8730242848396301,
        -0.4713851809501648,
        -0.8818212747573853
      ],
      "type": "VEC3"
    },
    {
      "bufferView": 1,
      "componentType": 5126,
      "count": 65532,
      "max": [
        0.9916250109672546,
        0.9919160008430481
      ],
      "min": [
        0.008058000355958939,
        0.00817199982702732
      ],
      "type": "VEC2"
    },
    {
      "bufferView": 0,
      "componentType": 5125,
      "count": 367815,
      "type": "SCALAR"
    },
    {
      "bufferView": 2,
      "byteOffset": 1572768,
      "componentType": 5126,
      "count": 17385,
      "max": [
        9.074433326721191,
        -6.3147711753845215,
        4.988056182861328
      ],
      "min": [
        -7.13532018661499,
        -10.41728401184082,
        -9.596428871154785
      ],
      "type": "VEC3"
    },
    {
      "bufferView": 2,
      "byteOffset": 1781388,
      "componentType": 5126,
      "count": 17385,
      "max": [
        0.8088452816009521,
        0.9999996423721313,
        0.6768962144851685
      ],
      "min": [
        -0.8636574149131775,
        -0.019761011004447937,
        -0.8740571737289429
      ],
      "type": "VEC3"
    },
    {
      "bufferView": 1,
      "byteOffset": 524256,
      "componentType": 5126,
      "count": 17385,
      "max": [
        0.9841820001602173,
        0.7348549962043762
      ],
      "min": [
        0.41971099376678467,
        0.10607799887657166
      ],
      "type": "VEC2"
    },
    {
      "bufferView": 0,
      "byteOffset": 1471260,
      "componentType": 5125,
      "count": 97464,
      "type": "SCALAR"
    },
    {
      "bufferView": 2,
      "byteOffset": 1990008,
      "componentType": 5126,
      "count": 2653,
      "max": [
        -1.2458970546722412,
        -7.448843002319336,
        -1.2727530002593994
      ],
      "min": [
        -7.758575916290283,
        -9.41844654083252,
        -7.369088172912598
      ],
      "type": "VEC3"
    },
    {
      "bufferView": 2,
      "byteOffset": 2021844,
      "componentType": 5126,
      "count": 2653,
      "max": [
        0.6439762115478516,
        0.9999993443489075,
        0.3998861610889435
      ],
      "min": [
        -0.7831771373748779,
        0.5321700572967529,
        -0.7845721244812012
      ],
      "type": "VEC3"
    },
    {
      "bufferView": 1,
      "byteOffset": 663336,
      "componentType": 5126,
      "count": 2653,
      "max": [
        0.5105760097503662,
        0.9916260242462158
      ],
      "min": [
        0.008603000082075596,
        0.6524839997291565
      ],
      "type": "VEC2"
    },
    {
      "bufferView": 0,
      "byteOffset": 1861116,
      "componentType": 5125,
      "count": 14709,
      "type": "SCALAR"
    }
  ],
  "asset": {
    "extras": {
      "author": "Terrie Simmons-Ehrhardt (https://sketchfab.com/terrielsimmons)",
      "license": "CC-BY-4.0 (http://creativecommons.org/licenses/by/4.0/)",
      "source": "https://sketchfab.com/3d-models/sand-at-sunset-beach-1ac0847acae44ffe9c3783be28e82bcf",
      "title": "Sand at Sunset Beach"
    },
    "generator": "Sketchfab-12.65.0",
    "version": "2.0"
  },
  "bufferViews": [
    {
      "buffer": 0,
      "byteLength": 1919952,
      "name": "floatBufferViews",
      "target": 34963
    },
    {
      "buffer": 0,
      "byteLength": 684560,
      "byteOffset": 1919952,
      "byteStride": 8,
      "name": "floatBufferViews",
      "target": 34962
    },
    {
      "buffer": 0,
      "byteLength": 2053680,
      "byteOffset": 2604512,
      "byteStride": 12,
      "name": "floatBufferViews",
      "target": 34962
    }
  ],
  "buffers": [
    {
      "byteLength": 4658192,
      "uri": "scene.bin"
    }
  ],
  "extensionsUsed": [
    "KHR_materials_unlit"
  ],
  "images": [
    {
      "uri": "textures/material0000_baseColor.jpeg"
    },
    {
      "uri": "textures/material0001_baseColor.jpeg"
    }
  ],
  "materials": [
    {
      "doubleSided": true,
      "extensions": {
        "KHR_materials_unlit": {}
      },
      "name": "material0000",
      "pbrMetallicRoughness": {
        "baseColorTexture": {
          "index": 0
        },
        "metallicFactor": 0.0
      }
    },
    {
      "doubleSided": true,
      "extensions": {
        "KHR_materials_unlit": {}
      },
      "name": "material0001",
      "pbrMetallicRoughness": {
        "baseColorTexture": {
          "index": 1
        },
        "metallicFactor": 0.0
      }
    }
  ],
  "meshes": [
    {
      "name": "Object_0",
      "primitives": [
        {
          "attributes": {
            "NORMAL": 1,
            "POSITION": 0,
            "TEXCOORD_0": 2
          },
          "indices": 3,
          "material": 0,
          "mode": 4
        }
      ]
    },
    {
      "name": "Object_1",
      "primitives": [
        {
          "attributes": {
            "NORMAL": 5,
            "POSITION": 4,
            "TEXCOORD_0": 6
          },
          "indices": 7,
          "material": 0,
          "mode": 4
        }
      ]
    },
    {
      "name": "Object_2",
      "primitives": [
        {
          "attributes": {
            "NORMAL": 9,
            "POSITION": 8,
            "TEXCOORD_0": 10
          },
          "indices": 11,
          "material": 1,
          "mode": 4
        }
      ]
    }
  ],
  "nodes": [
    {
      "children": [
        1
      ],
      "matrix": [
        0.9936666488647461,
        0.10790506750345231,
        -0.03135396912693975,
        0.0,
        -0.0976007878780365,
        0.9670730829238892,
        0.23503994941711448,
        0.0,
        0.05568357929587364,
        -0.23049117624759696,
        0.9714798927307129,
        0.0,
        -0.7068114876747131,
        5.7095880508422825,
        12.138936042785646,
        1.0
      ],
      "name": "Sketchfab_model"
    },
    {
      "children": [
        2,
        3,
        4
      ],
      "name": "model.obj.cleaner.materialmerger.gles"
    },
    {
      "mesh": 0,
      "name": "Object_2"
    },
    {
      "mesh": 1,
      "name": "Object_3"
    },
    {
      "mesh": 2,
      "name": "Object_4"
    }
  ],
  "samplers": [
    {
      "magFilter": 9729,
      "minFilter": 9987,
      "wrapS": 10497,
      "wrapT": 10497
    }
  ],
  "scene": 0,
  "scenes": [
    {
      "name": "Sketchfab_Scene",
      "nodes": [
        0
      ]
    }
  ],
  "textures": [
    {
      "sampler": 0,
      "source": 0
    },
    {
      "sampler": 0,
      "source": 1
    }
  ]
}
