{
  "accessors": [
    {
      "bufferView": 2,
      "componentType": 5126,
      "count": 1238,
      "max": [
        1.0,
        0.02477959915995598,
        0.6280369758605957
      ],
      "min": [
        -0.9104840159416199,
        -0.20375500619411469,
        -0.6280369758605957
      ],
      "type": "VEC3"
    },
    {
      "bufferView": 2,
      "byteOffset": 14856,
      "componentType": 5126,
      "count": 1238,
      "max": [
        0.9997347593307495,
        0.9996383786201477,
        1.0
      ],
      "min": [
        -1.0,
        -0.9999881386756897,
        -1.0
      ],
      "type": "VEC3"
    },
    {
      "bufferView": 3,
      "componentType": 5126,
      "count": 1238,
      "max": [
        1.0,
        1.0,
        0.9999563694000244,
        1.0
      ],
      "min": [
        -0.9999876618385315,
        -1.0,
        -0.9999982118606567,
        -1.0
      ],
      "type": "VEC4"
    },
    {
      "bufferView": 1,
      "componentType": 5126,
      "count": 1238,
      "max": [
        1.5768500566482544,
        0.9950039982795715
      ],
      "min": [
        0.0010450000409036875,
        0.0
      ],
      "type": "VEC2"
    },
    {
      "bufferView": 0,
      "componentType": 5125,
      "count": 3330,
      "type": "SCALAR"
    },
    {
      "bufferView": 2,
      "byteOffset": 29712,
      "componentType": 5126,
      "count": 56,
      "max": [
        -0.3321309983730316,
        0.20375500619411469,
        0.2830660045146942
      ],
      "min": [
        -0.8120759725570679,
        -0.10511600226163864,
        0.1347769945859909
      ],
      "type": "VEC3"
    },
    {
      "bufferView": 2,
      "byteOffset": 30384,
      "componentType": 5126,
      "count": 56,
      "max": [
        0.5131117701530457,
        0.7027102112770081,
        0.9956353306770325
      ],
      "min": [
        -0.49926993250846863,
        -0.9063078761100769,
        -0.9063078761100769
      ],
      "type": "VEC3"
    },
    {
      "bufferView": 3,
      "byteOffset": 19808,
      "componentType": 5126,
      "count": 56,
      "max": [
        1.0,
        0.8687021732330322,
        0.5445191264152527,
        1.0
      ],
      "min": [
        -0.7445363402366638,
        -0.8909568786621094,
        -0.37896910309791565,
        1.0
      ],
      "type": "VEC4"
    },
    {
      "bufferView": 1,
      "byteOffset": 9904,
      "componentType": 5126,
      "count": 56,
      "max": [
        0.9953770041465759,
        0.9952139854431152
      ],
      "min": [
        0.5266460180282593,
        0.7293620109558105
      ],
      "type": "VEC2"
    },
    {
      "bufferView": 0,
      "byteOffset": 13320,
      "componentType": 5125,
      "count": 132,
      "type": "SCALAR"
    },
    {
      "bufferView": 2,
      "byteOffset": 31056,
      "componentType": 5126,
      "count": 56,
      "max": [
        -0.3321309983730316,
        0.20375500619411469,
        -0.1311040073633194
      ],
      "min": [
        -0.8120759725570679,
        -0.10511600226163864,
        -0.2793929874897003
      ],
      "type": "VEC3"
    },
    {
      "bufferView": 2,
      "byteOffset": 31728,
      "componentType": 5126,
      "count": 56,
      "max": [
        0.5131121277809143,
        0.7027102112770081,
        0.9063078761100769
      ],
      "min": [
        -0.49927011132240295,
        -0.9063078761100769,
        -0.9956353306770325
      ],
      "type": "VEC3"
    },
    {
      "bufferView": 3,
      "byteOffset": 20704,
      "componentType": 5126,
      "count": 56,
      "max": [
        1.0,
        0.9725435972213745,
        0.5435658097267151,
        1.0
      ],
      "min": [
        -0.8768754005432129,
        -0.8726831674575806,
        -0.3307138681411743,
        1.0
      ],
      "type": "VEC4"
    },
    {
      "bufferView": 1,
      "byteOffset": 10352,
      "componentType": 5126,
      "count": 56,
      "max": [
        0.9954519867897034,
        0.6001960039138794
      ],
      "min": [
        0.5464990139007568,
        0.3343780040740967
      ],
      "type": "VEC2"
    },
    {
      "bufferView": 0,
      "byteOffset": 13848,
      "componentType": 5125,
      "count": 132,
      "type": "SCALAR"
    },
    {
      "bufferView": 2,
      "byteOffset": 32400,
      "componentType": 5126,
      "count": 46,
      "max": [
        -0.5806919932365417,
        -0.09407070279121399,
        0.41095098853111267
      ],
      "min": [
        -1.0,
        -0.11135999858379364,
        0.18273399770259857
      ],
      "type": "VEC3"
    },
    {
      "bufferView": 2,
      "byteOffset": 32952,
      "componentType": 5126,
      "count": 46,
      "max": [
        0.7073922157287598,
        0.9999096393585205,
        1.0
      ],
      "min": [
        -0.98089998960495,
        -1.0,
        -1.0
      ],
      "type": "VEC3"
    },
    {
      "bufferView": 3,
      "byteOffset": 21600,
      "componentType": 5126,
      "count": 46,
      "max": [
        1.0,
        0.9565456509590149,
        0.28701794147491455,
        1.0
      ],
      "min": [
        -0.056917786598205566,
        -0.7077862024307251,
        -0.6950079202651978,
        1.0
      ],
      "type": "VEC4"
    },
    {
      "bufferView": 1,
      "byteOffset": 10800,
      "componentType": 5126,
      "count": 46,
      "max": [
        0.16755299270153046,
        0.1826930046081543
      ],
      "min": [
        0.0010450000409036875,
        0.0010450000409036875
      ],
      "type": "VEC2"
    },
    {
      "bufferView": 0,
      "byteOffset": 14376,
      "componentType": 5125,
      "count": 96,
      "type": "SCALAR"
    },
    {
      "bufferView": 2,
      "byteOffset": 33504,
      "componentType": 5126,
      "count": 44,
      "max": [
        -0.5806919932365417,
        -0.09407070279121399,
        -0.18145200610160828
      ],
      "min": [
        -1.0,
        -0.11135999858379364,
        -0.40966901183128357
      ],
      "type": "VEC3"
    },
    {
      "bufferView": 2,
      "byteOffset": 34032,
      "componentType": 5126,
      "count": 44,
      "max": [
        0.7073922157287598,
        0.9999096393585205,
        1.0
      ],
      "min": [
        -0.98089998960495,
        -1.0,
        -1.0
      ],
      "type": "VEC3"
    },
    {
      "bufferView": 3,
      "byteOffset": 22336,
      "componentType": 5126,
      "count": 44,
      "max": [
        0.05691991746425629,
        0.7080129384994507,
        0.28702908754348755,
        1.0
      ],
      "min": [
        -1.0,
        -0.9565397500991821,
        -0.6948106288909912,
        1.0
      ],
      "type": "VEC4"
    },
    {
      "bufferView": 1,
      "byteOffset": 11168,
      "componentType": 5126,
      "count": 44,
      "max": [
        0.9951339960098267,
        0.689486026763916
      ],
      "min": [
        0.8286309838294983,
        0.5078369975090027
      ],
      "type": "VEC2"
    },
    {
      "bufferView": 0,
      "byteOffset": 14760,
      "componentType": 5125,
      "count": 96,
      "type": "SCALAR"
    }
  ],
  "asset": {
    "extras": {
      "author": "jesper117 (https://sketchfab.com/jesper117)",
      "license": "CC-BY-4.0 (http://creativecommons.org/licenses/by/4.0/)",
      "source": "https://sketchfab.com/3d-models/f-22-raptor-55a94a590f70499ba12734f82bb544c8",
      "title": "F-22 Raptor"
    },
    "generator": "Sketchfab-15.25.0",
    "version": "2.0"
  },
  "bufferViews": [
    {
      "buffer": 0,
      "byteLength": 15144,
      "name": "floatBufferViews",
      "target": 34963
    },
    {
      "buffer": 0,
      "byteLength": 11520,
      "byteOffset": 15144,
      "byteStride": 8,
      "name": "floatBufferViews",
      "target": 34962
    },
    {
      "buffer": 0,
      "byteLength": 34560,
      "byteOffset": 26664,
      "byteStride": 12,
      "name": "floatBufferViews",
      "target": 34962
    },
    {
      "buffer": 0,
      "byteLength": 23040,
      "byteOffset": 61224,
      "byteStride": 16,
      "name": "floatBufferViews",
      "target": 34962
    }
  ],
  "buffers": [
    {
      "byteLength": 84264,
      "uri": "scene.bin"
    }
  ],
  "images": [
    {
      "uri": "textures/lambert9SG_baseColor.jpeg"
    },
    {
      "uri": "textures/lambert9SG_metallicRoughness.png"
    },
    {
      "uri": "textures/lambert9SG_normal.jpeg"
    },
    {
      "uri": "textures/lambert10SG_baseColor.jpeg"
    },
    {
      "uri": "textures/lambert10SG_metallicRoughness.png"
    },
    {
      "uri": "textures/lambert10SG_normal.jpeg"
    },
    {
      "uri": "textures/lambert8SG_baseColor.jpeg"
    },
    {
      "uri": "textures/lambert8SG_metallicRoughness.png"
    },
    {
      "uri": "textures/lambert8SG_normal.jpeg"
    }
  ],
  "materials": [
    {
      "doubleSided": true,
      "name": "lambert9SG",
      "normalTexture": {
        "index": 2
      },
      "pbrMetallicRoughness": {
        "baseColorTexture": {
          "index": 0
        },
        "metallicRoughnessTexture": {
          "index": 1
        }
      }
    },
    {
      "doubleSided": true,
      "name": "lambert10SG",
      "normalTexture": {
        "index": 5
      },
      "pbrMetallicRoughness": {
        "baseColorTexture": {
          "index": 3
        },
        "metallicRoughnessTexture": {
          "index": 4
        }
      }
    },
    {
      "doubleSided": true,
      "name": "lambert8SG",
      "normalTexture": {
        "index": 8
      },
      "pbrMetallicRoughness": {
        "baseColorTexture": {
          "index": 6
        },
        "metallicRoughnessTexture": {
          "index": 7
        }
      }
    }
  ],
  "meshes": [
    {
      "name": "defaultMaterial",
      "primitives": [
        {
          "attributes": {
            "NORMAL": 1,
            "POSITION": 0,
            "TANGENT": 2,
            "TEXCOORD_0": 3
          },
          "indices": 4,
          "material": 2,
          "mode": 4
        }
      ]
    },
    {
      "name": "defaultMaterial",
      "primitives": [
        {
          "attributes": {
            "NORMAL": 6,
            "POSITION": 5,
            "TANGENT": 7,
            "TEXCOORD_0": 8
          },
          "indices": 9,
          "material": 1,
          "mode": 4
        }
      ]
    },
    {
      "name": "defaultMaterial",
      "primitives": [
        {
          "attributes": {
            "NORMAL": 11,
            "POSITION": 10,
            "TANGENT": 12,
            "TEXCOORD_0": 13
          },
          "indices": 14,
          "material": 1,
          "mode": 4
        }
      ]
    },
    {
      "name": "defaultMaterial",
      "primitives": [
        {
          "attributes": {
            "NORMAL": 16,
            "POSITION": 15,
            "TANGENT": 17,
            "TEXCOORD_0": 18
          },
          "indices": 19,
          "material": 0,
          "mode": 4
        }
      ]
    },
    {
      "name": "defaultMaterial",
      "primitives": [
        {
          "attributes": {
            "NORMAL": 21,
            "POSITION": 20,
            "TANGENT": 22,
            "TEXCOORD_0": 23
          },
          "indices": 24,
          "material": 0,
          "mode": 4
        }
      ]
    }
  ],
  "nodes": [
    {
      "children": [
        1
      ],
      "matrix": [
        1.0,
        0.0,
        0.0,
        0.0,
        0.0,
        2.220446049250313e-16,
        -1.0,
        0.0,
        0.0,
        1.0,
        2.220446049250313e-16,
        0.0,
        0.0,
        0.0,
        0.0,
        1.0
      ],
      "name": "Sketchfab_model"
    },
    {
      "children": [
        2,
        4,
        6,
        8,
        10
      ],
      "matrix": [
        1.0,
        0.0,
        0.0,
        0.0,
        0.0,
        -4.371139006309477e-08,
        0.999999999999999,
        0.0,
        0.0,
        -0.999999999999999,
        -4.371139006309477e-08,
        0.0,
        0.0,
        0.0,
        0.0,
        1.0
      ],
      "name": "Collada visual scene group"
    },
    {
      "children": [
        3
      ],
      "name": "g"
    },
    {
      "mesh": 0,
      "name": "defaultMaterial"
    },
    {
      "children": [
        5
      ],
      "name": "g"
    },
    {
      "mesh": 1,
      "name": "defaultMaterial"
    },
    {
      "children": [
        7
      ],
      "name": "g"
    },
    {
      "mesh": 2,
      "name": "defaultMaterial"
    },
    {
      "children": [
        9
      ],
      "name": "g"
    },
    {
      "mesh": 3,
      "name": "defaultMaterial"
    },
    {
      "children": [
        11
      ],
      "name": "g"
    },
    {
      "mesh": 4,
      "name": "defaultMaterial"
    }
  ],
  "samplers": [
    {
      "magFilter": 9729,
      "minFilter": 9987,
      "wrapS": 10497,
      "wrapT": 10497
    }
  ],
  "scene": 0,
  "scenes": [
    {
      "name": "Sketchfab_Scene",
      "nodes": [
        0
      ]
    }
  ],
  "textures": [
    {
      "sampler": 0,
      "source": 0
    },
    {
      "sampler": 0,
      "source": 1
    },
    {
      "sampler": 0,
      "source": 2
    },
    {
      "sampler": 0,
      "source": 3
    },
    {
      "sampler": 0,
      "source": 4
    },
    {
      "sampler": 0,
      "source": 5
    },
    {
      "sampler": 0,
      "source": 6
    },
    {
      "sampler": 0,
      "source": 7
    },
    {
      "sampler": 0,
      "source": 8
    }
  ]
}
