{
  "accessors": [
    {
      "bufferView": 2,
      "componentType": 5126,
      "count": 2506,
      "max": [
        11.476385116577148,
        11.650827407836914,
        5.593066692352295
      ],
      "min": [
        -1.8868250846862793,
        -41.24498748779297,
        -6.287624359130859
      ],
      "type": "VEC3"
    },
    {
      "bufferView": 2,
      "byteOffset": 30072,
      "componentType": 5126,
      "count": 2506,
      "max": [
        1.0,
        1.0,
        1.0
      ],
      "min": [
        -1.0,
        -1.0,
        -1.0
      ],
      "type": "VEC3"
    },
    {
      "bufferView": 3,
      "componentType": 5126,
      "count": 2506,
      "max": [
        1.0,
        1.0,
        1.0,
        1.0
      ],
      "min": [
        -1.0,
        -1.0,
        -1.0,
        -1.0
      ],
      "type": "VEC4"
    },
    {
      "bufferView": 1,
      "componentType": 5126,
      "count": 2506,
      "max": [
        0.9925458431243896,
        0.9923539757728577
      ],
      "min": [
        0.007595755159854889,
        0.014324204996228218
      ],
      "type": "VEC2"
    },
    {
      "bufferView": 0,
      "componentType": 5125,
      "count": 6516,
      "type": "SCALAR"
    },
    {
      "bufferView": 2,
      "byteOffset": 60144,
      "componentType": 5126,
      "count": 24,
      "max": [
        0.7556577920913696,
        0.5793414115905762,
        -2.2172927856445313e-05
      ],
      "min": [
        -0.9499130249023438,
        -0.011778831481933594,
        -0.010022163391113281
      ],
      "type": "VEC3"
    },
    {
      "bufferView": 2,
      "byteOffset": 60432,
      "componentType": 5126,
      "count": 24,
      "max": [
        1.0,
        1.0,
        1.0
      ],
      "min": [
        -1.0,
        -1.0,
        -1.0
      ],
      "type": "VEC3"
    },
    {
      "bufferView": 3,
      "byteOffset": 40096,
      "componentType": 5126,
      "count": 24,
      "max": [
        2.288589229237914e-07,
        1.0,
        1.0,
        1.0
      ],
      "min": [
        -1.4064872821907461e-14,
        -1.0,
        -1.0,
        1.0
      ],
      "type": "VEC4"
    },
    {
      "bufferView": 1,
      "byteOffset": 20048,
      "componentType": 5126,
      "count": 24,
      "max": [
        0.7463444471359253,
        0.8900443315505981
      ],
      "min": [
        0.49155542254447937,
        0.5927750468254089
      ],
      "type": "VEC2"
    },
    {
      "bufferView": 0,
      "byteOffset": 26064,
      "componentType": 5125,
      "count": 36,
      "type": "SCALAR"
    },
    {
      "bufferView": 2,
      "byteOffset": 60720,
      "componentType": 5126,
      "count": 216,
      "max": [
        1.339186668395996,
        2.023296594619751,
        0.400881290435791
      ],
      "min": [
        -1.140632152557373,
        -2.0646092891693115,
        -0.2514033317565918
      ],
      "type": "VEC3"
    },
    {
      "bufferView": 2,
      "byteOffset": 63312,
      "componentType": 5126,
      "count": 216,
      "max": [
        1.0,
        1.0,
        1.0
      ],
      "min": [
        -1.0,
        -1.0,
        -1.0
      ],
      "type": "VEC3"
    },
    {
      "bufferView": 3,
      "byteOffset": 40480,
      "componentType": 5126,
      "count": 216,
      "max": [
        1.0,
        1.0,
        1.0,
        1.0
      ],
      "min": [
        -1.0,
        -1.0,
        -1.0,
        1.0
      ],
      "type": "VEC4"
    },
    {
      "bufferView": 1,
      "byteOffset": 20240,
      "componentType": 5126,
      "count": 216,
      "max": [
        0.901965856552124,
        0.8475937843322754
      ],
      "min": [
        0.3812718093395233,
        0.04785735905170441
      ],
      "type": "VEC2"
    },
    {
      "bufferView": 0,
      "byteOffset": 26208,
      "componentType": 5125,
      "count": 360,
      "type": "SCALAR"
    },
    {
      "bufferView": 2,
      "byteOffset": 65904,
      "componentType": 5126,
      "count": 96,
      "max": [
        7.06355619430542,
        5.753559112548828,
        -2.173750877380371
      ],
      "min": [
        2.063995122909546,
        -25.1424560546875,
        -3.3369905948638916
      ],
      "type": "VEC3"
    },
    {
      "bufferView": 2,
      "byteOffset": 67056,
      "componentType": 5126,
      "count": 96,
      "max": [
        1.0,
        1.0,
        1.0
      ],
      "min": [
        -1.0,
        -0.9999215006828308,
        -1.0
      ],
      "type": "VEC3"
    },
    {
      "bufferView": 3,
      "byteOffset": 43936,
      "componentType": 5126,
      "count": 96,
      "max": [
        0.9997707605361938,
        0.9999990463256836,
        1.0,
        1.0
      ],
      "min": [
        -1.0,
        -0.02157295122742653,
        -1.0,
        1.0
      ],
      "type": "VEC4"
    },
    {
      "bufferView": 1,
      "byteOffset": 21968,
      "componentType": 5126,
      "count": 96,
      "max": [
        0.9850989580154419,
        0.5386630296707153
      ],
      "min": [
        0.39703285694122314,
        0.019245771691203117
      ],
      "type": "VEC2"
    },
    {
      "bufferView": 0,
      "byteOffset": 27648,
      "componentType": 5125,
      "count": 252,
      "type": "SCALAR"
    },
    {
      "bufferView": 2,
      "byteOffset": 68208,
      "componentType": 5126,
      "count": 216,
      "max": [
        1.144604206085205,
        1.9945964813232422,
        0.40025246143341064
      ],
      "min": [
        -1.1626763343811035,
        -1.9550495147705078,
        -0.2520327568054199
      ],
      "type": "VEC3"
    },
    {
      "bufferView": 2,
      "byteOffset": 70800,
      "componentType": 5126,
      "count": 216,
      "max": [
        1.0,
        1.0,
        1.0
      ],
      "min": [
        -1.0,
        -1.0,
        -1.0
      ],
      "type": "VEC3"
    },
    {
      "bufferView": 3,
      "byteOffset": 45472,
      "componentType": 5126,
      "count": 216,
      "max": [
        1.0,
        1.0,
        1.0,
        1.0
      ],
      "min": [
        -1.0,
        -1.0,
        -1.0,
        1.0
      ],
      "type": "VEC4"
    },
    {
      "bufferView": 1,
      "byteOffset": 22736,
      "componentType": 5126,
      "count": 216,
      "max": [
        0.9020261764526367,
        0.8926558494567871
      ],
      "min": [
        0.5469820499420166,
        0.0709758847951889
      ],
      "type": "VEC2"
    },
    {
      "bufferView": 0,
      "byteOffset": 28656,
      "componentType": 5125,
      "count": 360,
      "type": "SCALAR"
    },
    {
      "bufferView": 2,
      "byteOffset": 73392,
      "componentType": 5126,
      "count": 216,
      "max": [
        1.1450657844543457,
        1.958958625793457,
        0.40022802352905273
      ],
      "min": [
        -1.1705622673034668,
        -2.024723529815674,
        -0.2520573139190674
      ],
      "type": "VEC3"
    },
    {
      "bufferView": 2,
      "byteOffset": 75984,
      "componentType": 5126,
      "count": 216,
      "max": [
        1.0,
        1.0,
        1.0
      ],
      "min": [
        -1.0,
        -1.0,
        -1.0
      ],
      "type": "VEC3"
    },
    {
      "bufferView": 3,
      "byteOffset": 48928,
      "componentType": 5126,
      "count": 216,
      "max": [
        1.0,
        1.0,
        1.0,
        1.0
      ],
      "min": [
        -1.0,
        -1.0,
        -1.0,
        1.0
      ],
      "type": "VEC4"
    },
    {
      "bufferView": 1,
      "byteOffset": 24464,
      "componentType": 5126,
      "count": 216,
      "max": [
        0.9018577337265015,
        0.8756293058395386
      ],
      "min": [
        0.48968586325645447,
        0.13971979916095734
      ],
      "type": "VEC2"
    },
    {
      "bufferView": 0,
      "byteOffset": 30096,
      "componentType": 5125,
      "count": 360,
      "type": "SCALAR"
    },
    {
      "bufferView": 2,
      "byteOffset": 78576,
      "componentType": 5126,
      "count": 24,
      "max": [
        0.8048932552337646,
        0.5872077941894531,
        -2.2172927856445313e-05
      ],
      "min": [
        -0.8360519409179688,
        -0.003912448883056641,
        -0.010022163391113281
      ],
      "type": "VEC3"
    },
    {
      "bufferView": 2,
      "byteOffset": 78864,
      "componentType": 5126,
      "count": 24,
      "max": [
        1.0,
        1.0,
        1.0
      ],
      "min": [
        -1.0,
        -1.0,
        -1.0
      ],
      "type": "VEC3"
    },
    {
      "bufferView": 3,
      "byteOffset": 52384,
      "componentType": 5126,
      "count": 24,
      "max": [
        1.1221398381167091e-05,
        1.0,
        0.0,
        1.0
      ],
      "min": [
        -6.994363275225624e-07,
        0.0,
        -1.0,
        1.0
      ],
      "type": "VEC4"
    },
    {
      "bufferView": 1,
      "byteOffset": 26192,
      "componentType": 5126,
      "count": 24,
      "max": [
        0.7465128898620605,
        0.8900304436683655
      ],
      "min": [
        0.40171995759010315,
        0.6320840716362
      ],
      "type": "VEC2"
    },
    {
      "bufferView": 0,
      "byteOffset": 31536,
      "componentType": 5125,
      "count": 36,
      "type": "SCALAR"
    },
    {
      "bufferView": 2,
      "byteOffset": 79152,
      "componentType": 5126,
      "count": 40,
      "max": [
        0.8767011165618896,
        0.7042841911315918,
        0.009978175163269043
      ],
      "min": [
        -0.903434157371521,
        0.0033326148986816406,
        -2.205371856689453e-05
      ],
      "type": "VEC3"
    },
    {
      "bufferView": 2,
      "byteOffset": 79632,
      "componentType": 5126,
      "count": 40,
      "max": [
        1.0,
        1.0,
        1.0
      ],
      "min": [
        -1.0,
        -1.0,
        -1.0
      ],
      "type": "VEC3"
    },
    {
      "bufferView": 3,
      "byteOffset": 52768,
      "componentType": 5126,
      "count": 40,
      "max": [
        9.552049959893338e-06,
        1.0,
        2.988932976677461e-07,
        1.0
      ],
      "min": [
        0.0,
        0.0,
        -1.0,
        1.0
      ],
      "type": "VEC4"
    },
    {
      "bufferView": 1,
      "byteOffset": 26384,
      "componentType": 5126,
      "count": 40,
      "max": [
        0.8885137438774109,
        0.7319633960723877
      ],
      "min": [
        0.4914603531360626,
        0.014637431129813194
      ],
      "type": "VEC2"
    },
    {
      "bufferView": 0,
      "byteOffset": 31680,
      "componentType": 5125,
      "count": 84,
      "type": "SCALAR"
    },
    {
      "bufferView": 2,
      "byteOffset": 80112,
      "componentType": 5126,
      "count": 24,
      "max": [
        0.8249506950378418,
        0.6858358383178711,
        -2.205371856689453e-05
      ],
      "min": [
        -0.8158226013183594,
        -0.007550239562988281,
        -0.01002204418182373
      ],
      "type": "VEC3"
    },
    {
      "bufferView": 2,
      "byteOffset": 80400,
      "componentType": 5126,
      "count": 24,
      "max": [
        1.0,
        1.0,
        1.0
      ],
      "min": [
        -1.0,
        -1.0,
        -1.0
      ],
      "type": "VEC3"
    },
    {
      "bufferView": 3,
      "byteOffset": 53408,
      "componentType": 5126,
      "count": 24,
      "max": [
        6.876936708977155e-07,
        1.0,
        1.0,
        1.0
      ],
      "min": [
        -6.876936140542966e-07,
        -1.0,
        -1.0,
        1.0
      ],
      "type": "VEC4"
    },
    {
      "bufferView": 1,
      "byteOffset": 26704,
      "componentType": 5126,
      "count": 24,
      "max": [
        0.7698818445205688,
        0.8878539800643921
      ],
      "min": [
        0.6891240477561951,
        0.6751459836959839
      ],
      "type": "VEC2"
    },
    {
      "bufferView": 0,
      "byteOffset": 32016,
      "componentType": 5125,
      "count": 36,
      "type": "SCALAR"
    }
  ],
  "asset": {
    "extras": {
      "author": "Uxman (https://sketchfab.com/Usman1684)",
      "license": "CC-BY-4.0 (http://creativecommons.org/licenses/by/4.0/)",
      "source": "https://sketchfab.com/3d-models/gerald-ford-aircraft-carrier-324120997379466caad30917911bcd8b",
      "title": "Gerald Ford Aircraft Carrier"
    },
    "generator": "Sketchfab-14.64.0",
    "version": "2.0"
  },
  "bufferViews": [
    {
      "buffer": 0,
      "byteLength": 32160,
      "name": "floatBufferViews",
      "target": 34963
    },
    {
      "buffer": 0,
      "byteLength": 26896,
      "byteOffset": 32160,
      "byteStride": 8,
      "name": "floatBufferViews",
      "target": 34962
    },
    {
      "buffer": 0,
      "byteLength": 80688,
      "byteOffset": 59056,
      "byteStride": 12,
      "name": "floatBufferViews",
      "target": 34962
    },
    {
      "buffer": 0,
      "byteLength": 53792,
      "byteOffset": 139744,
      "byteStride": 16,
      "name": "floatBufferViews",
      "target": 34962
    }
  ],
  "buffers": [
    {
      "byteLength": 193536,
      "uri": "scene.bin"
    }
  ],
  "extensionsUsed": [
    "KHR_materials_specular"
  ],
  "images": [
    {
      "uri": "textures/Gerald_Ford_baseColor.png"
    },
    {
      "uri": "textures/Gerald_Ford_metallicRoughness.png"
    },
    {
      "uri": "textures/Gerald_Ford_normal.jpeg"
    }
  ],
  "materials": [
    {
      "doubleSided": true,
      "extensions": {
        "KHR_materials_specular": {
          "specularColorFactor": [
            1.0,
            1.0,
            1.0
          ],
          "specularFactor": 0.16883361827175217
        }
      },
      "name": "Gerald_Ford",
      "normalTexture": {
        "index": 2
      },
      "occlusionTexture": {
        "index": 1
      },
      "pbrMetallicRoughness": {
        "baseColorTexture": {
          "index": 0
        },
        "metallicRoughnessTexture": {
          "index": 1
        },
        "roughnessFactor": 0.9354295066407889
      }
    }
  ],
  "meshes": [
    {
      "name": "Gerald Body_Gerald Ford_0",
      "primitives": [
        {
          "attributes": {
            "NORMAL": 1,
            "POSITION": 0,
            "TANGENT": 2,
            "TEXCOORD_0": 3
          },
          "indices": 4,
          "material": 0,
          "mode": 4
        }
      ]
    },
    {
      "name": "Catapult2_Gerald Ford_0",
      "primitives": [
        {
          "attributes": {
            "NORMAL": 6,
            "POSITION": 5,
            "TANGENT": 7,
            "TEXCOORD_0": 8
          },
          "indices": 9,
          "material": 0,
          "mode": 4
        }
      ]
    },
    {
      "name": "Elevator3_Gerald Ford_0",
      "primitives": [
        {
          "attributes": {
            "NORMAL": 11,
            "POSITION": 10,
            "TANGENT": 12,
            "TEXCOORD_0": 13
          },
          "indices": 14,
          "material": 0,
          "mode": 4
        }
      ]
    },
    {
      "name": "Hanger_Gerald Ford_0",
      "primitives": [
        {
          "attributes": {
            "NORMAL": 16,
            "POSITION": 15,
            "TANGENT": 17,
            "TEXCOORD_0": 18
          },
          "indices": 19,
          "material": 0,
          "mode": 4
        }
      ]
    },
    {
      "name": "Elevator1_Gerald Ford_0",
      "primitives": [
        {
          "attributes": {
            "NORMAL": 21,
            "POSITION": 20,
            "TANGENT": 22,
            "TEXCOORD_0": 23
          },
          "indices": 24,
          "material": 0,
          "mode": 4
        }
      ]
    },
    {
      "name": "Elevator2_Gerald Ford_0",
      "primitives": [
        {
          "attributes": {
            "NORMAL": 26,
            "POSITION": 25,
            "TANGENT": 27,
            "TEXCOORD_0": 28
          },
          "indices": 29,
          "material": 0,
          "mode": 4
        }
      ]
    },
    {
      "name": "Catapult1_Gerald Ford_0",
      "primitives": [
        {
          "attributes": {
            "NORMAL": 31,
            "POSITION": 30,
            "TANGENT": 32,
            "TEXCOORD_0": 33
          },
          "indices": 34,
          "material": 0,
          "mode": 4
        }
      ]
    },
    {
      "name": "Catapult3_Gerald Ford_0",
      "primitives": [
        {
          "attributes": {
            "NORMAL": 36,
            "POSITION": 35,
            "TANGENT": 37,
            "TEXCOORD_0": 38
          },
          "indices": 39,
          "material": 0,
          "mode": 4
        }
      ]
    },
    {
      "name": "Catapult4_Gerald Ford_0",
      "primitives": [
        {
          "attributes": {
            "NORMAL": 41,
            "POSITION": 40,
            "TANGENT": 42,
            "TEXCOORD_0": 43
          },
          "indices": 44,
          "material": 0,
          "mode": 4
        }
      ]
    }
  ],
  "nodes": [
    {
      "children": [
        1
      ],
      "matrix": [
        1.0,
        0.0,
        0.0,
        0.0,
        0.0,
        2.220446049250313e-16,
        -1.0,
        0.0,
        0.0,
        1.0,
        2.220446049250313e-16,
        0.0,
        0.0,
        0.0,
        0.0,
        1.0
      ],
      "name": "Sketchfab_model"
    },
    {
      "children": [
        2
      ],
      "matrix": [
        1.0,
        0.0,
        0.0,
        0.0,
        0.0,
        0.0,
        1.0,
        0.0,
        0.0,
        -1.0,
        0.0,
        0.0,
        0.0,
        0.0,
        0.0,
        1.0
      ],
      "name": "Gerald.fbx"
    },
    {
      "children": [
        3,
        5,
        7,
        9,
        11,
        13,
        15,
        17,
        19
      ],
      "name": "RootNode"
    },
    {
      "children": [
        4
      ],
      "matrix": [
        100.0,
        0.0,
        0.0,
        0.0,
        -0.0,
        -1.629206793918314e-05,
        -99.99999999999868,
        0.0,
        0.0,
        99.99999999999868,
        -1.629206793918314e-05,
        0.0,
        -442.87066650390625,
        315.02349853515625,
        -1361.7999267578125,
        1.0
      ],
      "name": "Gerald Body"
    },
    {
      "mesh": 0,
      "name": "Gerald Body_Gerald Ford_0"
    },
    {
      "children": [
        6
      ],
      "matrix": [
        100.0,
        0.0,
        0.0,
        0.0,
        0.0,
        -1.629206793918314e-05,
        -99.99999999999868,
        0.0,
        0.0,
        99.99999999999868,
        -1.629206793918314e-05,
        0.0,
        47.05944061279297,
        128.0469970703125,
        664.9988403320313,
        1.0
      ],
      "name": "Catapult2"
    },
    {
      "mesh": 1,
      "name": "Catapult2_Gerald Ford_0"
    },
    {
      "children": [
        8
      ],
      "matrix": [
        100.0,
        0.0,
        0.0,
        0.0,
        0.0,
        -1.629206793918314e-05,
        -99.99999999999868,
        0.0,
        0.0,
        99.99999999999868,
        -1.629206793918314e-05,
        0.0,
        435.26416015625,
        87.95659637451172,
        -1593.4808349609375,
        1.0
      ],
      "name": "Elevator3"
    },
    {
      "mesh": 2,
      "name": "Elevator3_Gerald Ford_0"
    },
    {
      "children": [
        10
      ],
      "matrix": [
        100.0,
        0.0,
        0.0,
        0.0,
        -0.0,
        -1.629206793918314e-05,
        -99.99999999999868,
        0.0,
        0.0,
        99.99999999999868,
        -1.629206793918314e-05,
        0.0,
        -442.87066650390625,
        315.02349853515625,
        -1361.7999267578125,
        1.0
      ],
      "name": "Hanger"
    },
    {
      "mesh": 3,
      "name": "Hanger_Gerald Ford_0"
    },
    {
      "children": [
        12
      ],
      "matrix": [
        100.0,
        0.0,
        0.0,
        0.0,
        -0.0,
        -1.629206793918314e-05,
        -99.99999999999868,
        0.0,
        0.0,
        99.99999999999868,
        -1.629206793918314e-05,
        0.0,
        -459.6235656738281,
        88.01949310302734,
        273.13079833984375,
        1.0
      ],
      "name": "Elevator1"
    },
    {
      "mesh": 4,
      "name": "Elevator1_Gerald Ford_0"
    },
    {
      "children": [
        14
      ],
      "matrix": [
        100.0,
        0.0,
        0.0,
        0.0,
        -0.0,
        -1.629206793918314e-05,
        -99.99999999999868,
        0.0,
        0.0,
        99.99999999999868,
        -1.629206793918314e-05,
        0.0,
        -459.66973876953125,
        88.02194213867188,
        -926.8480224609375,
        1.0
      ],
      "name": "Elevator2"
    },
    {
      "mesh": 5,
      "name": "Elevator2_Gerald Ford_0"
    },
    {
      "children": [
        16
      ],
      "matrix": [
        100.0,
        0.0,
        0.0,
        0.0,
        -0.0,
        -1.629206793918314e-05,
        -99.99999999999868,
        0.0,
        0.0,
        99.99999999999868,
        -1.629206793918314e-05,
        0.0,
        -318.46337890625,
        128.0469970703125,
        679.1295776367188,
        1.0
      ],
      "name": "Catapult1"
    },
    {
      "mesh": 6,
      "name": "Catapult1_Gerald Ford_0"
    },
    {
      "children": [
        18
      ],
      "matrix": [
        100.0,
        0.0,
        0.0,
        0.0,
        0.0,
        -1.629206793918314e-05,
        -99.99999999999868,
        0.0,
        0.0,
        99.99999999999868,
        -1.629206793918314e-05,
        0.0,
        287.90325927734375,
        128.0469970703125,
        -765.3009643554688,
        1.0
      ],
      "name": "Catapult3"
    },
    {
      "mesh": 7,
      "name": "Catapult3_Gerald Ford_0"
    },
    {
      "children": [
        20
      ],
      "matrix": [
        100.0,
        0.0,
        0.0,
        0.0,
        0.0,
        -1.629206793918314e-05,
        -99.99999999999868,
        0.0,
        0.0,
        99.99999999999868,
        -1.629206793918314e-05,
        0.0,
        494.60467529296875,
        128.0469970703125,
        -1052.28369140625,
        1.0
      ],
      "name": "Catapult4"
    },
    {
      "mesh": 8,
      "name": "Catapult4_Gerald Ford_0"
    }
  ],
  "samplers": [
    {
      "magFilter": 9729,
      "minFilter": 9987,
      "wrapS": 10497,
      "wrapT": 10497
    }
  ],
  "scene": 0,
  "scenes": [
    {
      "name": "Sketchfab_Scene",
      "nodes": [
        0
      ]
    }
  ],
  "textures": [
    {
      "sampler": 0,
      "source": 0
    },
    {
      "sampler": 0,
      "source": 1
    },
    {
      "sampler": 0,
      "source": 2
    }
  ]
}
